<svg width="554.808" height="291.168" viewBox="0 0 146.792 77.039" xmlns="http://www.w3.org/2000/svg"><defs><clipPath clipPathUnits="userSpaceOnUse" id="a"><path d="m9.83 41.48 9.15-10.17.083 1.076c.414 6.063 3.225 8.516 7.635 8.516 2.48 0 4.575-.469 7.055-1.544l-1.488-4.795c-1.709.772-3.142 1.102-4.768 1.102-1.874 0-3.114-1.295-3.335-4.354l-.358-5.126 12.457-12.017-4.024-4.134-8.82 10.225-.082-1.157c-.413-6.064-3.28-8.516-7.634-8.516-1.902 0-3.83.413-6.477 1.35l1.406 4.795c1.488-.661 2.784-.91 4.272-.91 1.791 0 3.114 1.296 3.335 4.356l.358 5.236L6.083 37.346z" style="fill:#fff;stroke-width:.26458" aria-label="x"/></clipPath><path id="b" d="M316.286 79.926h469.036v353.501H316.286z"/></defs><path style="fill:#fff;stroke-width:.793758;stroke-linejoin:bevel" d="M-23.821-10.536H160.29v112.613H-23.821z"/><circle style="fill:#000;fill-opacity:1;stroke-width:.185143;stroke-linejoin:bevel" cx="46.589" cy="38.123" r="20.66"/><circle style="fill:#fff;stroke-width:.185143;stroke-linejoin:bevel" cx="20.756" cy="20.611" r="20.66" clip-path="url(#a)" transform="translate(25.833 17.512)"/><path style="fill:#fff;stroke-width:.793758;stroke-linejoin:bevel" d="M-1.637-15.524h5.521v6.172h-5.521z"/><g aria-label="hub" transform="translate(-28.477 -2.227) scale(.31368)" style="font-style:italic;font-weight:700;font-size:96px;line-height:1.25;font-family:'Cascadia Code';-inkscape-font-specification:'Cascadia Code Bold Italic';letter-spacing:0;word-spacing:0;white-space:pre;shape-inside:url(#b)"><path d="M348.113 168.564h12.89l5.345-30.28c2.343-13.36-2.016-20.345-12.563-20.345-6.797 0-11.297 3.61-13.265 9.938h-1.594l2.062-11.672c2.344-13.266-2.156-18.937-15.093-18.937-2.391 0-4.782.187-7.125.75l1.359 11.812c1.219-.375 2.484-.516 3.703-.516 3.563 0 5.016 2.532 3.984 8.297l-8.953 50.953h12.89l4.642-26.39c2.109-9.094 6.609-12.188 11.625-12.188 4.359 0 6.375 2.953 5.39 8.578zM390.488 169.549c8.485 0 11.953-4.313 14.625-11.485h1.969c-.562 7.36 2.906 10.97 10.453 10.97h5.11l1.875-10.735h-2.25c-3.47 0-4.36-1.313-3.61-5.719l5.906-33.703h-12.843l-3.282 18.469v-.047c-2.53 13.078-6.562 20.203-13.5 20.203-3.796 0-5.953-2.156-5.953-5.906 0-6.657 2.766-16.172 9.094-31.828l-12.75-1.829c-6.562 15.329-9.328 25.735-9.328 34.829 0 10.64 5.25 16.78 14.484 16.78zM443.035 169.502c22.313 0 39.14-15.328 39.14-35.625 0-10.172-5.155-15.938-14.109-15.938-7.453 0-12.89 3.563-15.28 9.891h-1.36l2.062-11.625c2.344-13.266-2.156-18.937-15.093-18.937-2.391 0-4.782.187-7.125.75l1.359 11.812c1.219-.375 2.484-.516 3.703-.516 3.563 0 5.016 2.532 3.984 8.297l-8.953 50.907h.047v.046c3.938.563 7.688.938 11.625.938zm4.5-19.406-.047.28c2.719-14.296 9.516-20.39 15.797-20.39 3.75 0 5.906 1.97 5.906 5.485 0 12.28-9.843 21.656-22.968 21.984z"/></g></svg>