<svg xmlns="http://www.w3.org/2000/svg" xml:space="preserve" width="40" height="40"><path d="M24 9V0H7C5.3 0 4 1.3 4 3v34c0 1.7 1.3 3 3 3h26c1.7 0 3-1.3 3-3V12h-9c-1.7 0-3-1.3-3-3z" style="fill:#dfdfdf;fill-opacity:1"/><g style="opacity:.2"><path style="opacity:1;fill:#28240b;fill-opacity:1" d="M48 33v-9l-11-.7z" transform="translate(-12 -12)"/></g><path style="fill:gray;fill-opacity:1;fill-rule:nonzero;stroke:none;stroke-width:0;stroke-linejoin:bevel;stroke-miterlimit:4;stroke-dasharray:none" d="M9.479 28.71H30.28v2.142H9.479zm0 4.142H30.28v2.142H9.479z"/><g style="font-style:normal;font-variant:normal;font-weight:700;font-stretch:normal;font-size:32px;line-height:1.25;font-family:'Myriad Pro';-inkscape-font-specification:'Myriad Pro Bold';fill:gray;fill-opacity:1;stroke-width:.999778;stroke-miterlimit:4;stroke-dasharray:none"><path d="m3.94 10.678 5.184 7.648-5.312 8h5.344l1.472-2.816c.384-.768.8-1.536 1.184-2.4h.096c.352.832.768 1.632 1.216 2.4l1.568 2.816h5.504l-5.216-8.192 5.152-7.456h-5.28l-1.376 2.528c-.416.8-.8 1.568-1.216 2.432h-.064c-.416-.768-.832-1.536-1.28-2.336L9.38 10.678z" style="font-size:32px;fill:gray;fill-opacity:1;stroke-width:.999778;stroke-miterlimit:4;stroke-dasharray:none" transform="matrix(1.29995 0 0 1.17845 4.693 -5.375)" aria-label="x"/></g><path d="M24 0v9c0 1.7 1.3 3 3 3h9z" style="fill:#999;fill-opacity:1"/></svg>