<svg xmlns="http://www.w3.org/2000/svg" xml:space="preserve" width="32" height="40"><path d="M36 21v-9H19c-1.7 0-3 1.3-3 3v34c0 1.7 1.3 3 3 3h26c1.7 0 3-1.3 3-3V24h-9c-1.7 0-3-1.3-3-3z" style="fill:#ccc;fill-opacity:1" transform="translate(-16 -12)"/><g style="opacity:.2"><path style="fill:gray;fill-opacity:1;opacity:1" d="M48 33v-9l-11-.7z" transform="translate(-16 -12)"/></g><path d="M36 12v9c0 1.7 1.3 3 3 3h9z" style="fill:gray;fill-opacity:1" transform="translate(-16 -12)"/><path style="opacity:1;fill:#999;fill-opacity:1;fill-rule:nonzero;stroke:none;stroke-width:0;stroke-linejoin:bevel;stroke-miterlimit:4;stroke-dasharray:none" d="M5.479 22.568H26.28v2.142H5.479z"/><path style="fill:#999;fill-opacity:1;fill-rule:nonzero;stroke:none;stroke-width:0;stroke-linejoin:bevel;stroke-miterlimit:4;stroke-dasharray:none" d="M5.479 26.71H26.28v2.142H5.479zm0 4.142H26.28v2.142H5.479z"/><text xml:space="preserve" style="font-style:normal;font-variant:normal;font-weight:700;font-stretch:normal;font-size:21.3333px;line-height:1.25;font-family:'Myriad Pro';-inkscape-font-specification:'Myriad Pro Bold';fill:#999" x="4.841" y="19.218"><tspan x="4.841" y="19.218" style="fill:#999">x</tspan></text></svg>