<svg width="156.17" height="156.776" viewBox="0 0 41.32 41.481" xmlns="http://www.w3.org/2000/svg"><defs><clipPath clipPathUnits="userSpaceOnUse" id="a"><path d="m9.83 41.48 9.15-10.17.083 1.076c.414 6.063 3.225 8.516 7.635 8.516 2.48 0 4.575-.469 7.055-1.544l-1.488-4.795c-1.709.772-3.142 1.102-4.768 1.102-1.874 0-3.114-1.295-3.335-4.354l-.358-5.126 12.457-12.017-4.024-4.134-8.82 10.225-.082-1.157c-.413-6.064-3.28-8.516-7.634-8.516-1.902 0-3.83.413-6.477 1.35l1.406 4.795c1.488-.661 2.784-.91 4.272-.91 1.791 0 3.114 1.296 3.335 4.356l.358 5.236L6.083 37.346z" style="fill:#fff;stroke-width:.26458" aria-label="x"/></clipPath></defs><circle style="fill:#238636;stroke-width:.185143;stroke-linejoin:bevel;fill-opacity:1" cx="20.756" cy="20.611" r="20.66"/><circle style="fill:#fff;stroke-width:.185143;stroke-linejoin:bevel" cx="20.756" cy="20.611" r="20.66" clip-path="url(#a)"/></svg>