<svg xmlns="http://www.w3.org/2000/svg" width="38.878" height="38.878" viewBox="0 0 10.287 10.286"><defs><marker style="overflow:visible" id="b" refX="0" refY="0" orient="auto"><path transform="matrix(.3 0 0 .3 -.69 0)" d="M8.719 4.034-2.207.016 8.719-4.002c-1.746 2.372-1.736 5.618 0 8.036z" style="fill:#c83737;fill-opacity:1;fill-rule:evenodd;stroke:#c83737;stroke-width:.625;stroke-linejoin:round;stroke-opacity:1"/></marker><path id="a" d="M29.466 15.255h154.6v52.662h-154.6z"/></defs><g style="font-style:normal;font-variant:normal;font-weight:400;font-stretch:normal;font-size:10.5833px;line-height:1.25;font-family:'Myriad Pro';-inkscape-font-specification:'Myriad Pro';white-space:pre;shape-inside:url(#a);fill:#c83737;fill-opacity:1" transform="translate(-27.7 -14.346)"><path d="M34.769 17.404c-.307-.233-1.005-.518-1.884-.518-1.365 0-2.106.72-2.106 1.397 0 .518.381.9.572 1.08l.2.18v.041c-.835.413-1.735 1.186-1.735 2.488 0 1.545 1.164 2.56 2.646 2.56 1.534 0 2.74-1.037 2.74-2.666 0-.942-.486-1.704-1.28-2.34l-.867-.687c-.403-.318-.604-.476-.604-.635 0-.159.18-.275.582-.275.55 0 1.133.243 1.323.38zm-1.863 3.334c.445.37.688.868.688 1.365 0 .826-.444 1.376-1.026 1.376-.625 0-1.101-.645-1.101-1.44 0-.835.434-1.386.953-1.703z" style="font-style:normal;font-variant:normal;font-weight:700;font-stretch:normal;font-family:'Myriad Pro';-inkscape-font-specification:'Myriad Pro Bold';fill:#c83737;fill-opacity:1" aria-label="δocvance"/></g><path style="fill:none;stroke:#c83737;stroke-width:.764911;stroke-linecap:butt;stroke-linejoin:miter;stroke-miterlimit:4;stroke-dasharray:none;stroke-opacity:1;marker-start:url(#b)" d="M7.207.997H2.2z"/></svg>