<svg xmlns="http://www.w3.org/2000/svg" width="166.439" height="30.502" viewBox="0 0 44.037 8.07"><defs><marker style="overflow:visible" id="b" refX="0" refY="0" orient="auto"><path transform="matrix(.3 0 0 .3 -.69 0)" d="M8.719 4.034-2.207.016 8.719-4.002c-1.746 2.372-1.736 5.618 0 8.036z" style="fill-rule:evenodd;stroke-width:.625;stroke-linejoin:round;stroke:#c83737;stroke-opacity:1;fill:#c83737;fill-opacity:1"/></marker><path id="a" d="M29.466 15.255h154.6v52.662h-154.6z"/></defs><g aria-label="δocvance" style="font-style:normal;font-variant:normal;font-weight:400;font-stretch:normal;font-size:10.5833px;line-height:1.25;font-family:'Myriad Pro';-inkscape-font-specification:'Myriad Pro';white-space:pre;shape-inside:url(#a)" transform="translate(-29.816 -16.562)"><path d="M34.769 17.404c-.307-.233-1.005-.518-1.884-.518-1.365 0-2.106.72-2.106 1.397 0 .518.381.9.572 1.08l.2.18v.041c-.835.413-1.735 1.186-1.735 2.488 0 1.545 1.164 2.56 2.646 2.56 1.534 0 2.74-1.037 2.74-2.666 0-.942-.486-1.704-1.28-2.34l-.867-.687c-.403-.318-.604-.476-.604-.635 0-.159.18-.275.582-.275.55 0 1.133.243 1.323.38zm-1.863 3.334c.445.37.688.868.688 1.365 0 .826-.444 1.376-1.026 1.376-.625 0-1.101-.645-1.101-1.44 0-.835.434-1.386.953-1.703z" style="font-style:normal;font-variant:normal;font-weight:700;font-stretch:normal;font-family:'Myriad Pro';-inkscape-font-specification:'Myriad Pro Bold';fill:#c83737"/><path d="M38.6 24.633c1.376 0 2.72-.868 2.72-2.752 0-1.566-1.058-2.656-2.635-2.656-1.672 0-2.773 1.069-2.773 2.74 0 1.673 1.164 2.668 2.678 2.668zm.021-1.154c-.677 0-1.047-.667-1.047-1.545 0-.773.296-1.556 1.058-1.556.73 0 1.026.783 1.026 1.545 0 .932-.391 1.556-1.026 1.556zm7.387-.286a2.27 2.27 0 0 1-.92.17c-.783 0-1.418-.498-1.418-1.45-.011-.836.54-1.44 1.386-1.44.423 0 .71.075.9.16l.254-1.197a3.732 3.732 0 0 0-1.228-.2c-1.926 0-2.963 1.237-2.963 2.74 0 1.62 1.068 2.646 2.74 2.646.614 0 1.154-.106 1.44-.243zm.688-3.852 1.884 5.175h1.609l1.926-5.175h-1.693l-.667 2.402a21.94 21.94 0 0 0-.286 1.26h-.032a15.07 15.07 0 0 0-.296-1.26l-.698-2.402zm10.394 2.117c0-1.217-.54-2.233-2.266-2.233-.942 0-1.65.264-2.01.465l.296 1.027c.338-.201.9-.381 1.429-.381.793 0 .941.391.941.667v.063c-1.83 0-3.037.635-3.037 1.98 0 .825.624 1.587 1.672 1.587.614 0 1.143-.223 1.482-.635h.032l.095.518h1.45c-.064-.286-.085-.762-.085-1.249zm-1.557 1.174c0 .096-.01.19-.031.276a.89.89 0 0 1-.836.592c-.36 0-.635-.2-.635-.614 0-.613.656-.814 1.502-.814zm2.837 1.884h1.608v-2.984c0-.148.011-.297.053-.402.117-.297.381-.604.826-.604.582 0 .815.455.815 1.122v2.868h1.608v-3.058c0-1.524-.793-2.233-1.852-2.233-.868 0-1.386.497-1.598.836h-.032l-.074-.72h-1.397c.022.466.043 1.005.043 1.651zm9.895-1.323a2.27 2.27 0 0 1-.92.17c-.784 0-1.419-.498-1.419-1.45-.01-.836.54-1.44 1.387-1.44.423 0 .709.075.9.16l.253-1.197a3.732 3.732 0 0 0-1.228-.2c-1.926 0-2.963 1.237-2.963 2.74 0 1.62 1.07 2.646 2.741 2.646.614 0 1.154-.106 1.44-.243zm5.535-.751c.021-.116.053-.36.053-.635 0-1.28-.635-2.582-2.307-2.582-1.789 0-2.614 1.45-2.614 2.762 0 1.62 1.005 2.635 2.762 2.635.699 0 1.344-.106 1.873-.328l-.211-1.09a4.263 4.263 0 0 1-1.43.222c-.75 0-1.407-.317-1.46-.984zm-3.344-1.1c.042-.424.317-1.048 1.005-1.048.73 0 .9.656.9 1.047z" style="font-style:normal;font-variant:normal;font-weight:700;font-stretch:normal;font-family:'Myriad Pro';-inkscape-font-specification:'Myriad Pro Bold';fill:#666"/></g><path style="fill:none;stroke:#c83737;stroke-width:.79375028;stroke-linecap:butt;stroke-linejoin:miter;stroke-miterlimit:4;stroke-dasharray:none;stroke-opacity:1;marker-start:url(#b)" d="M42.825 1.248H5.934"/></svg>